<?xml version="1.0" encoding="utf-8"?>
<!-- Generator: Adobe Illustrator 15.0.2, SVG Export Plug-In . SVG Version: 6.00 Build 0)  -->
<!DOCTYPE svg PUBLIC "-//W3C//DTD SVG 1.1//EN" "http://www.w3.org/Graphics/SVG/1.1/DTD/svg11.dtd">
<svg version="1.1" id="Layer_1" xmlns="http://www.w3.org/2000/svg" xmlns:xlink="http://www.w3.org/1999/xlink" x="0px" y="0px"
	 width="624px" height="513px" viewBox="0 0 624 513" enable-background="new 0 0 624 513" xml:space="preserve">
<text transform="matrix(1 0 0 1 142.7295 315.1416)"><tspan x="0" y="0" fill="#4D4D4D" font-family="'AppleGothic'" font-size="152.4297">go</tspan><tspan x="174.53" y="0" opacity="0" fill="#4D4D4D" font-family="'AppleGothic'" font-size="152.4297">o</tspan><tspan x="263.396" y="0" fill="#4D4D4D" font-family="'AppleGothic'" font-size="152.4297">d</tspan></text>
<text transform="matrix(1 0 0 1 12.938 469.6279)" fill="#4D4D4D" font-family="'AppleGothic'" font-size="152.4297">thoughts</text>
<g>
	<path fill="#FCEE21" d="M400.8,276.84c0.08,22.75-18.13,41.29-40.8,41.62c-22.67-0.33-40.88-18.87-40.8-41.62
		c0.03-10.15,3.7-19.39,9.76-26.59l3.91-4.26c12.39-19.31,14.689-47.45,14.689-47.45V198h24.881v0.55c0,0,2.3,28.14,14.689,47.46
		l3.9,4.28C397.1,257.49,400.76,266.69,400.8,276.84z"/>
	<path fill="#E6E6E6" d="M378,173.54v18.92c0,3.06-2.28,5.54-5.34,5.54h-0.22H347.56h-0.81c-3.06,0-5.75-2.48-5.75-5.54v-18.92
		c0-3.06,2.69-5.54,5.75-5.54H360h12.66C375.72,168,378,170.48,378,173.54z"/>
</g>
<path fill="none" stroke="#4D4D4D" stroke-width="4" stroke-miterlimit="10" d="M360,318.46c-22.67-0.33-40.88-18.87-40.8-41.62
	c0.03-10.15,3.7-19.39,9.76-26.59l3.91-4.26c12.39-19.31,14.689-47.45,14.689-47.45"/>
<path fill="none" stroke="#4D4D4D" stroke-width="4" stroke-miterlimit="10" d="M360,318.46c-0.21,0.01-0.41,0.01-0.62,0.01h1.24
	C360.41,318.47,360.21,318.47,360,318.46z"/>
<path fill="none" stroke="#4D4D4D" stroke-width="4" stroke-miterlimit="10" d="M372.44,198.55c0,0,2.3,28.14,14.689,47.46l3.9,4.28
	c6.069,7.2,9.729,16.4,9.77,26.55c0.08,22.75-18.13,41.29-40.8,41.62"/>
<line fill="none" stroke="#4D4D4D" stroke-width="4" stroke-miterlimit="10" x1="360" y1="168" x2="360" y2="-5.667"/>
<path fill="none" stroke="#4D4D4D" stroke-width="2" stroke-miterlimit="10" d="M360,168h12.66c3.06,0,5.34,2.48,5.34,5.54v18.92
	c0,3.06-2.28,5.54-5.34,5.54h-0.22H347.56h-0.81c-3.06,0-5.75-2.48-5.75-5.54v-18.92c0-3.06,2.69-5.54,5.75-5.54H360z"/>
<line fill="none" stroke="#4D4D4D" stroke-width="2" stroke-miterlimit="10" x1="348" y1="178" x2="371" y2="178"/>
<line fill="none" stroke="#4D4D4D" stroke-width="2" stroke-miterlimit="10" x1="348" y1="188" x2="371" y2="188"/>
</svg>
