<?xml version="1.0" encoding="utf-8"?>
<!-- Generator: Adobe Illustrator 15.0.2, SVG Export Plug-In . SVG Version: 6.00 Build 0)  -->
<!DOCTYPE svg PUBLIC "-//W3C//DTD SVG 1.1//EN" "http://www.w3.org/Graphics/SVG/1.1/DTD/svg11.dtd">
<svg version="1.1" id="Layer_1" xmlns="http://www.w3.org/2000/svg" xmlns:xlink="http://www.w3.org/1999/xlink" x="0px" y="0px"
	 width="624px" height="381px" viewBox="0 0 624 381" enable-background="new 0 0 624 381" xml:space="preserve">
<text transform="matrix(1 0 0 1 142.7295 183.1416)"><tspan x="0" y="0" fill="#4D4D4D" font-family="'AppleGothic'" font-size="152.4297">go</tspan><tspan x="174.53" y="0" opacity="0" fill="#4D4D4D" font-family="'AppleGothic'" font-size="152.4297">o</tspan><tspan x="263.396" y="0" fill="#4D4D4D" font-family="'AppleGothic'" font-size="152.4297">d</tspan></text>
<text transform="matrix(1 0 0 1 12.938 337.6279)" fill="#4D4D4D" font-family="'AppleGothic'" font-size="152.4297">thoughts</text>
<g id="XMLID_1_">
	<g>
		<path fill="#E6E6E6" d="M378,41.54v18.92c0,3.06-2.28,5.54-5.34,5.54h-0.22H347.56h-0.81c-3.06,0-5.75-2.48-5.75-5.54V41.54
			c0-3.06,2.69-5.54,5.75-5.54H360h12.66C375.72,36,378,38.48,378,41.54z"/>
		<path fill="#FCEE21" d="M400.8,144.84c0.08,22.75-18.13,41.29-40.8,41.62c-22.67-0.33-40.88-18.87-40.8-41.62
			c0.03-10.15,3.7-19.39,9.76-26.59l3.91-4.26c12.39-19.31,14.689-47.45,14.689-47.45V66h24.881v0.55c0,0,2.3,28.14,14.689,47.46
			l3.9,4.28C397.1,125.49,400.76,134.69,400.8,144.84z"/>
	</g>
	<g>
		<path fill="none" stroke="#4D4D4D" stroke-width="4" stroke-miterlimit="10" d="M360,186.46c-22.67-0.33-40.88-18.87-40.8-41.62
			c0.03-10.15,3.7-19.39,9.76-26.59l3.91-4.26c12.39-19.31,14.689-47.45,14.689-47.45"/>
		<path fill="none" stroke="#4D4D4D" stroke-width="4" stroke-miterlimit="10" d="M360,186.46c-0.21,0.01-0.41,0.01-0.62,0.01h1.24
			C360.41,186.47,360.21,186.47,360,186.46z"/>
		<path fill="none" stroke="#4D4D4D" stroke-width="4" stroke-miterlimit="10" d="M372.44,66.55c0,0,2.3,28.14,14.689,47.46
			l3.9,4.28c6.069,7.2,9.729,16.4,9.77,26.55c0.08,22.75-18.13,41.29-40.8,41.62"/>
		<line fill="none" stroke="#4D4D4D" stroke-width="4" stroke-miterlimit="10" x1="360" y1="36" x2="360" y2="-3"/>
		<path fill="none" stroke="#4D4D4D" stroke-width="2" stroke-miterlimit="10" d="M360,36h12.66c3.06,0,5.34,2.48,5.34,5.54v18.92
			c0,3.06-2.28,5.54-5.34,5.54h-0.22H347.56h-0.81c-3.06,0-5.75-2.48-5.75-5.54V41.54c0-3.06,2.69-5.54,5.75-5.54H360z"/>
		<line fill="none" stroke="#4D4D4D" stroke-width="2" stroke-miterlimit="10" x1="348" y1="46" x2="371" y2="46"/>
		<line fill="none" stroke="#4D4D4D" stroke-width="2" stroke-miterlimit="10" x1="348" y1="56" x2="371" y2="56"/>
	</g>
</g>
</svg>
